<?xml version="1.0" encoding="iso-8859-1"?>
<!-- Generator: Adobe Illustrator 19.0.0, SVG Export Plug-In . SVG Version: 6.00 Build 0)  -->
<svg xmlns="http://www.w3.org/2000/svg" xmlns:xlink="http://www.w3.org/1999/xlink" version="1.1" id="Layer_1" x="0px" y="0px" viewBox="0 0 511.999 511.999" style="enable-background:new 0 0 511.999 511.999;" xml:space="preserve" width="512px" height="512px">
<g>
	<g>
		<path d="M414.767,82.763c0-33.26-27.059-60.319-60.319-60.319s-60.319,27.059-60.319,60.319v78.865h-92.762H73.128    c-28.892,0-52.398,23.505-52.398,52.398c0,10.158,2.915,19.644,7.939,27.684C11.674,250.381,0,268.049,0,288.403    c0,14.527,5.946,27.689,15.527,37.189C5.946,335.092,0,348.253,0,362.78c0,23.564,15.637,43.539,37.079,50.107    c-3.812,7.262-5.982,15.515-5.982,24.27c0,28.892,23.505,52.398,52.398,52.398h117.872h161.003    c28.892,0,52.398-23.505,52.398-52.398v-6.786h97.232V161.629h-97.232V82.763z M73.128,192.046h128.238    c12.12,0,21.98,9.86,21.98,21.98c0,12.12-9.86,21.98-21.98,21.98H73.128c-12.12,0-21.98-9.86-21.98-21.98    C51.148,201.906,61.009,192.046,73.128,192.046z M201.366,459.138H83.494c-12.12,0-21.98-9.86-21.98-21.98s9.86-21.98,21.98-21.98    h117.872c12.12,0,21.98,9.86,21.98,21.98S213.486,459.138,201.366,459.138z M201.367,384.761H83.494H52.398    c-12.12,0-21.98-9.86-21.98-21.98s9.86-21.98,21.98-21.98h148.969c12.12,0,21.98,9.86,21.98,21.98    S213.487,384.761,201.367,384.761z M201.367,310.384H52.398c-12.12-0.001-21.98-9.86-21.98-21.98    c0-12.12,9.86-21.981,21.98-21.981h20.731h128.238c12.12,0,21.98,9.86,21.98,21.981    C223.347,300.524,213.487,310.384,201.367,310.384z M384.351,161.628v268.744v6.787h-0.002c0,12.12-9.86,21.98-21.98,21.98    H248.928c0.108-0.233,0.202-0.475,0.307-0.711c0.206-0.461,0.409-0.923,0.601-1.391c0.15-0.364,0.293-0.732,0.435-1.1    c0.18-0.465,0.354-0.933,0.52-1.404c0.133-0.377,0.261-0.755,0.385-1.136c0.155-0.474,0.302-0.951,0.444-1.432    c0.114-0.385,0.225-0.772,0.331-1.161c0.132-0.487,0.253-0.977,0.37-1.47c0.093-0.389,0.187-0.779,0.271-1.171    c0.108-0.507,0.204-1.019,0.298-1.531c0.071-0.385,0.145-0.769,0.207-1.156c0.086-0.539,0.156-1.084,0.225-1.628    c0.048-0.368,0.101-0.734,0.141-1.105c0.065-0.608,0.108-1.223,0.152-1.837c0.022-0.312,0.055-0.622,0.071-0.935    c0.05-0.932,0.077-1.869,0.077-2.813c0-0.905-0.023-1.806-0.069-2.7c-0.016-0.314-0.05-0.625-0.072-0.938    c-0.04-0.577-0.074-1.155-0.133-1.726c-0.038-0.367-0.094-0.728-0.139-1.093c-0.063-0.512-0.119-1.027-0.197-1.534    c-0.058-0.374-0.134-0.741-0.2-1.113c-0.086-0.491-0.165-0.986-0.265-1.471c-0.078-0.379-0.174-0.752-0.262-1.128    c-0.107-0.47-0.208-0.945-0.328-1.411c-0.098-0.378-0.214-0.75-0.32-1.125c-0.129-0.456-0.25-0.915-0.391-1.366    c-0.118-0.375-0.253-0.743-0.378-1.115c-0.149-0.442-0.291-0.887-0.451-1.324c-0.136-0.369-0.289-0.73-0.433-1.096    c-0.169-0.43-0.332-0.864-0.512-1.289c-0.153-0.36-0.322-0.712-0.484-1.068c-0.19-0.42-0.372-0.844-0.573-1.258    c-0.17-0.352-0.356-0.695-0.534-1.041c-0.209-0.409-0.412-0.82-0.631-1.222c-0.187-0.343-0.389-0.675-0.583-1.014    c-0.227-0.395-0.449-0.796-0.686-1.185c-0.203-0.332-0.42-0.653-0.629-0.98c-0.246-0.384-0.487-0.773-0.743-1.15    c-0.217-0.319-0.447-0.629-0.671-0.943c-0.266-0.373-0.525-0.75-0.799-1.115c-0.232-0.308-0.477-0.606-0.715-0.909    c-0.282-0.359-0.559-0.722-0.85-1.073c-0.25-0.302-0.513-0.592-0.77-0.888c-0.294-0.34-0.583-0.682-0.886-1.014    c-0.268-0.293-0.547-0.575-0.822-0.862c-0.306-0.321-0.608-0.647-0.923-0.96c-0.025-0.025-0.049-0.053-0.074-0.077    c0.025-0.025,0.049-0.052,0.074-0.077c0.314-0.313,0.616-0.639,0.923-0.96c0.275-0.287,0.555-0.569,0.822-0.862    c0.302-0.332,0.591-0.675,0.886-1.014c0.257-0.296,0.519-0.586,0.77-0.888c0.291-0.351,0.568-0.714,0.85-1.073    c0.238-0.303,0.484-0.601,0.715-0.909c0.275-0.366,0.534-0.742,0.799-1.115c0.224-0.314,0.454-0.624,0.671-0.943    c0.256-0.377,0.497-0.766,0.743-1.15c0.21-0.326,0.427-0.649,0.629-0.98c0.237-0.389,0.459-0.789,0.686-1.185    c0.195-0.338,0.396-0.671,0.583-1.014c0.219-0.401,0.422-0.814,0.631-1.222c0.177-0.348,0.364-0.689,0.534-1.041    c0.2-0.413,0.381-0.834,0.571-1.252c0.162-0.358,0.333-0.712,0.486-1.074c0.179-0.423,0.341-0.855,0.51-1.283    c0.145-0.367,0.298-0.73,0.435-1.101c0.16-0.437,0.302-0.882,0.451-1.324c0.126-0.372,0.261-0.74,0.378-1.115    c0.141-0.451,0.262-0.909,0.391-1.366c0.106-0.375,0.222-0.746,0.32-1.125c0.121-0.466,0.22-0.94,0.328-1.411    c0.086-0.376,0.184-0.749,0.262-1.128c0.1-0.487,0.178-0.98,0.265-1.471c0.065-0.371,0.142-0.739,0.2-1.113    c0.078-0.507,0.133-1.022,0.197-1.534c0.045-0.365,0.101-0.726,0.139-1.093c0.059-0.571,0.092-1.149,0.133-1.726    c0.021-0.313,0.056-0.624,0.072-0.938c0.046-0.894,0.069-1.795,0.069-2.7c0-0.905-0.023-1.806-0.069-2.7    c-0.016-0.314-0.05-0.625-0.072-0.938c-0.04-0.577-0.074-1.155-0.133-1.726c-0.038-0.367-0.094-0.728-0.139-1.093    c-0.063-0.512-0.119-1.027-0.197-1.534c-0.058-0.374-0.134-0.741-0.2-1.113c-0.086-0.491-0.165-0.986-0.265-1.471    c-0.078-0.379-0.174-0.752-0.262-1.128c-0.107-0.47-0.208-0.945-0.328-1.411c-0.098-0.378-0.214-0.75-0.32-1.125    c-0.129-0.456-0.25-0.915-0.391-1.366c-0.118-0.375-0.253-0.743-0.378-1.115c-0.149-0.442-0.291-0.887-0.451-1.324    c-0.136-0.369-0.289-0.73-0.433-1.096c-0.169-0.43-0.332-0.864-0.512-1.289c-0.153-0.36-0.322-0.712-0.484-1.068    c-0.19-0.42-0.372-0.844-0.573-1.258c-0.17-0.352-0.356-0.695-0.534-1.041c-0.209-0.409-0.412-0.82-0.631-1.222    c-0.187-0.343-0.389-0.675-0.583-1.014c-0.227-0.395-0.449-0.796-0.686-1.185c-0.203-0.332-0.42-0.653-0.629-0.98    c-0.246-0.384-0.487-0.773-0.743-1.15c-0.217-0.319-0.447-0.629-0.671-0.943c-0.266-0.373-0.525-0.75-0.799-1.115    c-0.232-0.308-0.477-0.606-0.715-0.909c-0.282-0.359-0.559-0.722-0.85-1.073c-0.25-0.302-0.513-0.592-0.77-0.888    c-0.294-0.34-0.583-0.682-0.886-1.014c-0.268-0.293-0.547-0.575-0.822-0.862c-0.306-0.321-0.608-0.647-0.923-0.96    c-0.025-0.025-0.049-0.053-0.074-0.077c0.025-0.025,0.049-0.052,0.074-0.077c0.314-0.313,0.616-0.639,0.923-0.96    c0.275-0.287,0.555-0.569,0.822-0.862c0.302-0.332,0.591-0.675,0.886-1.014c0.257-0.296,0.519-0.586,0.77-0.888    c0.291-0.351,0.568-0.714,0.85-1.073c0.238-0.303,0.484-0.601,0.715-0.909c0.275-0.366,0.534-0.742,0.799-1.115    c0.224-0.314,0.454-0.624,0.671-0.943c0.256-0.377,0.497-0.766,0.743-1.15c0.21-0.326,0.427-0.649,0.629-0.98    c0.237-0.389,0.459-0.789,0.686-1.185c0.195-0.338,0.396-0.671,0.583-1.014c0.219-0.401,0.422-0.814,0.631-1.222    c0.177-0.348,0.364-0.689,0.534-1.041c0.2-0.413,0.381-0.834,0.571-1.252c0.162-0.358,0.333-0.712,0.486-1.074    c0.179-0.423,0.341-0.855,0.51-1.283c0.145-0.367,0.298-0.73,0.435-1.101c0.16-0.437,0.302-0.882,0.451-1.324    c0.126-0.372,0.261-0.74,0.378-1.115c0.141-0.451,0.262-0.909,0.391-1.366c0.106-0.375,0.222-0.746,0.32-1.125    c0.121-0.466,0.22-0.94,0.328-1.411c0.086-0.376,0.184-0.749,0.262-1.128c0.1-0.487,0.178-0.98,0.265-1.471    c0.065-0.371,0.142-0.739,0.2-1.113c0.078-0.507,0.133-1.022,0.197-1.534c0.045-0.365,0.101-0.726,0.139-1.093    c0.059-0.571,0.092-1.149,0.133-1.726c0.021-0.313,0.056-0.624,0.072-0.938c0.046-0.894,0.069-1.795,0.069-2.7    c0-0.905-0.023-1.806-0.069-2.7c-0.016-0.314-0.05-0.625-0.072-0.938c-0.04-0.577-0.074-1.155-0.133-1.726    c-0.038-0.367-0.094-0.728-0.139-1.093c-0.063-0.512-0.119-1.027-0.197-1.534c-0.058-0.374-0.134-0.741-0.2-1.113    c-0.086-0.491-0.165-0.985-0.265-1.471c-0.078-0.379-0.174-0.752-0.262-1.128c-0.107-0.47-0.208-0.945-0.328-1.411    c-0.098-0.378-0.214-0.75-0.32-1.125c-0.129-0.456-0.25-0.915-0.391-1.366c-0.118-0.375-0.253-0.743-0.378-1.115    c-0.149-0.442-0.291-0.887-0.451-1.324c-0.136-0.369-0.289-0.73-0.433-1.096c-0.169-0.43-0.332-0.864-0.512-1.289    c-0.153-0.36-0.322-0.712-0.484-1.068c-0.19-0.42-0.372-0.844-0.573-1.258c-0.17-0.352-0.356-0.695-0.534-1.041    c-0.209-0.409-0.412-0.82-0.631-1.222c-0.187-0.343-0.389-0.675-0.583-1.014c-0.227-0.395-0.449-0.796-0.686-1.185    c-0.203-0.332-0.42-0.653-0.629-0.98c-0.246-0.384-0.487-0.773-0.743-1.15c-0.217-0.319-0.447-0.629-0.671-0.943    c-0.266-0.373-0.525-0.75-0.799-1.115c-0.232-0.308-0.477-0.606-0.715-0.909c-0.282-0.359-0.559-0.722-0.85-1.073    c-0.25-0.302-0.513-0.592-0.77-0.888c-0.294-0.34-0.583-0.682-0.886-1.014c-0.268-0.293-0.547-0.575-0.822-0.862    c-0.306-0.321-0.608-0.647-0.923-0.96c-0.025-0.025-0.049-0.053-0.074-0.077c0.025-0.025,0.049-0.052,0.074-0.077    c0.314-0.313,0.616-0.639,0.923-0.96c0.275-0.287,0.555-0.569,0.822-0.862c0.302-0.332,0.591-0.675,0.886-1.014    c0.257-0.296,0.519-0.586,0.77-0.888c0.291-0.351,0.568-0.714,0.85-1.073c0.238-0.303,0.484-0.601,0.715-0.909    c0.275-0.366,0.534-0.742,0.799-1.115c0.224-0.314,0.454-0.624,0.671-0.943c0.256-0.377,0.497-0.766,0.743-1.15    c0.21-0.326,0.427-0.649,0.629-0.98c0.237-0.389,0.459-0.789,0.686-1.185c0.195-0.338,0.396-0.671,0.583-1.014    c0.219-0.401,0.422-0.814,0.631-1.222c0.177-0.348,0.364-0.689,0.534-1.041c0.2-0.413,0.381-0.834,0.571-1.252    c0.162-0.358,0.333-0.712,0.486-1.074c0.179-0.423,0.341-0.855,0.51-1.283c0.145-0.367,0.298-0.73,0.435-1.101    c0.16-0.437,0.302-0.882,0.451-1.324c0.126-0.372,0.261-0.74,0.378-1.115c0.141-0.451,0.262-0.909,0.391-1.366    c0.106-0.375,0.222-0.746,0.32-1.125c0.121-0.466,0.22-0.94,0.328-1.411c0.086-0.376,0.184-0.749,0.262-1.128    c0.1-0.487,0.178-0.98,0.265-1.471c0.065-0.371,0.142-0.739,0.2-1.113c0.078-0.507,0.133-1.022,0.197-1.534    c0.045-0.365,0.101-0.726,0.139-1.093c0.059-0.571,0.092-1.149,0.133-1.726c0.021-0.313,0.056-0.624,0.072-0.938    c0.046-0.894,0.069-1.795,0.069-2.7c0-0.944-0.028-1.881-0.077-2.813c-0.016-0.313-0.049-0.624-0.071-0.935    c-0.044-0.614-0.087-1.229-0.152-1.837c-0.04-0.371-0.093-0.737-0.141-1.105c-0.07-0.544-0.139-1.089-0.225-1.628    c-0.062-0.387-0.137-0.771-0.207-1.156c-0.094-0.512-0.19-1.024-0.298-1.531c-0.084-0.392-0.177-0.782-0.271-1.171    c-0.118-0.493-0.238-0.984-0.37-1.47c-0.105-0.389-0.217-0.776-0.331-1.161c-0.142-0.48-0.289-0.957-0.444-1.432    c-0.125-0.38-0.252-0.759-0.385-1.136c-0.166-0.471-0.341-0.939-0.52-1.404c-0.142-0.368-0.285-0.735-0.434-1.099    c-0.193-0.468-0.395-0.931-0.601-1.392c-0.105-0.235-0.199-0.477-0.307-0.71h45.201v104.667h30.417V192.046v-15.209V82.763    c0-16.488,13.414-29.902,29.902-29.902c16.488,0,29.902,13.414,29.902,29.902V161.628z M481.583,192.046v207.908h-66.815V192.046    H481.583z" fill="#FFFFFF"/>
	</g>
</g>
<g>
</g>
<g>
</g>
<g>
</g>
<g>
</g>
<g>
</g>
<g>
</g>
<g>
</g>
<g>
</g>
<g>
</g>
<g>
</g>
<g>
</g>
<g>
</g>
<g>
</g>
<g>
</g>
<g>
</g>
</svg>
